<?xml version="1.0" encoding="UTF-8" standalone="no"?>
<!DOCTYPE svg PUBLIC "-//W3C//DTD SVG 1.1//EN"
 "http://www.w3.org/Graphics/SVG/1.1/DTD/svg11.dtd">
<!-- Generated by graphviz version 2.40.1 (20161225.0304)
 -->
<!-- Title: state transitions Pages: 1 -->
<svg width="490pt" height="753pt"
 viewBox="0.00 0.00 490.20 753.00" xmlns="http://www.w3.org/2000/svg" xmlns:xlink="http://www.w3.org/1999/xlink">
<g id="graph0" class="graph" transform="scale(1 1) rotate(0) translate(4 749)">
<title>state transitions</title>
<polygon fill="#ffffff" stroke="transparent" points="-4,4 -4,-749 486.198,-749 486.198,4 -4,4"/>
<!-- initial -->
<g id="node1" class="node">
<title>initial</title>
<ellipse fill="#000000" stroke="#000000" stroke-width="2" cx="191.0075" cy="-739.5" rx="5.5" ry="5.5"/>
</g>
<!-- i_note_tr_initial_ongoing_1 -->
<!-- initial&#45;&gt;i_note_tr_initial_ongoing_1 -->
<g id="edge7" class="edge">
<title>initial&#45;&gt;i_note_tr_initial_ongoing_1</title>
<path fill="none" stroke="#000000" d="M187.9218,-734.6723C180.3257,-722.7882 161.2501,-692.9441 160.0653,-691.0905"/>
</g>
<!-- submitted -->
<g id="node2" class="node">
<title>submitted</title>
<polygon fill="#ffffff" stroke="transparent" stroke-width="2" points="211.0075,-529 137.0075,-529 137.0075,-493 211.0075,-493 211.0075,-529"/>
<text text-anchor="start" x="148.0023" y="-507.2" font-family="Helvetica,sans-Serif" font-size="12.00" fill="#000000">submitted</text>
<path fill="none" stroke="#000000" stroke-width="2" d="M149.3408,-494C149.3408,-494 198.6742,-494 198.6742,-494 204.3408,-494 210.0075,-499.6667 210.0075,-505.3333 210.0075,-505.3333 210.0075,-516.6667 210.0075,-516.6667 210.0075,-522.3333 204.3408,-528 198.6742,-528 198.6742,-528 149.3408,-528 149.3408,-528 143.6742,-528 138.0075,-522.3333 138.0075,-516.6667 138.0075,-516.6667 138.0075,-505.3333 138.0075,-505.3333 138.0075,-499.6667 143.6742,-494 149.3408,-494"/>
</g>
<!-- recalled -->
<g id="node6" class="node">
<title>recalled</title>
<polygon fill="#ffffff" stroke="transparent" stroke-width="2" points="204.0075,-361 140.0075,-361 140.0075,-325 204.0075,-325 204.0075,-361"/>
<text text-anchor="start" x="151.0057" y="-339.2" font-family="Helvetica,sans-Serif" font-size="12.00" fill="#000000">recalled</text>
<path fill="none" stroke="#000000" stroke-width="2" d="M152.3408,-326C152.3408,-326 191.6742,-326 191.6742,-326 197.3408,-326 203.0075,-331.6667 203.0075,-337.3333 203.0075,-337.3333 203.0075,-348.6667 203.0075,-348.6667 203.0075,-354.3333 197.3408,-360 191.6742,-360 191.6742,-360 152.3408,-360 152.3408,-360 146.6742,-360 141.0075,-354.3333 141.0075,-348.6667 141.0075,-348.6667 141.0075,-337.3333 141.0075,-337.3333 141.0075,-331.6667 146.6742,-326 152.3408,-326"/>
</g>
<!-- submitted&#45;&gt;recalled -->
<g id="edge13" class="edge">
<title>submitted&#45;&gt;recalled</title>
<path fill="none" stroke="#000000" d="M155.4866,-492.9792C144.2188,-480.6673 130.863,-463.3149 124.7855,-445 119.7464,-429.8142 119.8966,-424.2348 124.7855,-409 129.4622,-394.4265 138.6731,-380.3368 147.7279,-368.9446"/>
<polygon fill="#000000" stroke="#000000" points="150.5063,-371.0778 154.2265,-361.1576 145.1319,-366.5926 150.5063,-371.0778"/>
<text text-anchor="start" x="125.0075" y="-424" font-family="Helvetica,sans-Serif" font-size="10.00" fill="#000000">recall &#160;&#160;</text>
</g>
<!-- processing -->
<g id="node7" class="node">
<title>processing</title>
<polygon fill="#ffffff" stroke="transparent" stroke-width="2" points="315.0075,-445 235.0075,-445 235.0075,-409 315.0075,-409 315.0075,-445"/>
<text text-anchor="start" x="246.0017" y="-423.2" font-family="Helvetica,sans-Serif" font-size="12.00" fill="#000000">processing</text>
<path fill="none" stroke="#000000" stroke-width="2" d="M247.3408,-410C247.3408,-410 302.6742,-410 302.6742,-410 308.3408,-410 314.0075,-415.6667 314.0075,-421.3333 314.0075,-421.3333 314.0075,-432.6667 314.0075,-432.6667 314.0075,-438.3333 308.3408,-444 302.6742,-444 302.6742,-444 247.3408,-444 247.3408,-444 241.6742,-444 236.0075,-438.3333 236.0075,-432.6667 236.0075,-432.6667 236.0075,-421.3333 236.0075,-421.3333 236.0075,-415.6667 241.6742,-410 247.3408,-410"/>
</g>
<!-- submitted&#45;&gt;processing -->
<g id="edge18" class="edge">
<title>submitted&#45;&gt;processing</title>
<path fill="none" stroke="#000000" d="M195.923,-492.7733C210.3494,-480.7751 229.4163,-464.9174 245.2137,-451.779"/>
<polygon fill="#000000" stroke="#000000" points="247.6843,-454.2765 253.1348,-445.1912 243.2083,-448.8946 247.6843,-454.2765"/>
<text text-anchor="middle" x="232.397" y="-466" font-family="Helvetica,sans-Serif" font-size="10.00" fill="#000000"> </text>
</g>
<!-- ^choice -->
<g id="node8" class="node">
<title>^choice</title>
<polygon fill="#ffffff" stroke="#000000" stroke-width="2" points="343.0075,-355.5 330.5075,-343 343.0075,-330.5 355.5075,-343 343.0075,-355.5"/>
<text text-anchor="middle" x="343.0075" y="-340" font-family="Helvetica,sans-Serif" font-size="10.00" fill="#000000"> </text>
</g>
<!-- submitted&#45;&gt;^choice -->
<g id="edge20" class="edge">
<title>submitted&#45;&gt;^choice</title>
<path fill="none" stroke="#000000" d="M211.198,-504.3902C245.2508,-496.3392 294.4189,-479.3137 322.0075,-445 340.3242,-422.2183 343.8808,-387.5267 344.0152,-365.0566"/>
<polygon fill="#000000" stroke="#000000" points="347.511,-364.7709 343.845,-354.8306 340.512,-364.8875 347.511,-364.7709"/>
<text text-anchor="middle" x="339.397" y="-424" font-family="Helvetica,sans-Serif" font-size="10.00" fill="#000000"> </text>
</g>
<!-- note_submitted -->
<g id="node10" class="node">
<title>note_submitted</title>
<polygon fill="#ffffcc" stroke="#000000" points="80.0225,-445 -.0075,-445 -.0075,-409 86.0225,-409 86.0225,-439 80.0225,-445"/>
<polyline fill="none" stroke="#000000" points="80.0225,-445 80.0225,-439 "/>
<polyline fill="none" stroke="#000000" points="86.0225,-439 80.0225,-439 "/>
<text text-anchor="start" x="8" y="-430" font-family="Helvetica,sans-Serif" font-size="10.00" fill="#000000">flag: provisional</text>
<text text-anchor="start" x="8" y="-418" font-family="Helvetica,sans-Serif" font-size="10.00" fill="#000000">flag: incomplete</text>
</g>
<!-- submitted&#45;&gt;note_submitted -->
<g id="edge2" class="edge">
<title>submitted&#45;&gt;note_submitted</title>
<path fill="none" stroke="#000000" stroke-dasharray="5,2" d="M136.7223,-493.8971C125.6102,-488.3247 113.5821,-481.8079 103.0075,-475 89.2113,-466.1181 74.8214,-454.6903 63.5931,-445.2135"/>
</g>
<!-- valid -->
<g id="node3" class="node">
<title>valid</title>
<polygon fill="#ffffff" stroke="transparent" stroke-width="2" points="377.0075,-277 321.0075,-277 321.0075,-241 377.0075,-241 377.0075,-277"/>
<text text-anchor="start" x="336.6739" y="-255.2" font-family="Helvetica,sans-Serif" font-size="12.00" fill="#000000">valid</text>
<path fill="none" stroke="#000000" stroke-width="2" d="M333.3408,-242C333.3408,-242 364.6742,-242 364.6742,-242 370.3408,-242 376.0075,-247.6667 376.0075,-253.3333 376.0075,-253.3333 376.0075,-264.6667 376.0075,-264.6667 376.0075,-270.3333 370.3408,-276 364.6742,-276 364.6742,-276 333.3408,-276 333.3408,-276 327.6742,-276 322.0075,-270.3333 322.0075,-264.6667 322.0075,-264.6667 322.0075,-253.3333 322.0075,-253.3333 322.0075,-247.6667 327.6742,-242 333.3408,-242"/>
</g>
<!-- not valid -->
<g id="node4" class="node">
<title>not valid</title>
<polygon fill="#ffffff" stroke="transparent" stroke-width="2" points="441.0075,-193 375.0075,-193 375.0075,-157 441.0075,-157 441.0075,-193"/>
<text text-anchor="start" x="385.6683" y="-171.2" font-family="Helvetica,sans-Serif" font-size="12.00" fill="#000000">not valid</text>
<path fill="none" stroke="#000000" stroke-width="2" d="M387.3408,-158C387.3408,-158 428.6742,-158 428.6742,-158 434.3408,-158 440.0075,-163.6667 440.0075,-169.3333 440.0075,-169.3333 440.0075,-180.6667 440.0075,-180.6667 440.0075,-186.3333 434.3408,-192 428.6742,-192 428.6742,-192 387.3408,-192 387.3408,-192 381.6742,-192 376.0075,-186.3333 376.0075,-180.6667 376.0075,-180.6667 376.0075,-169.3333 376.0075,-169.3333 376.0075,-163.6667 381.6742,-158 387.3408,-158"/>
</g>
<!-- valid&#45;&gt;not valid -->
<g id="edge24" class="edge">
<title>valid&#45;&gt;not valid</title>
<path fill="none" stroke="#000000" d="M349.3233,-240.9536C350.2327,-231.4134 352.5721,-219.8744 358.2255,-211 360.8454,-206.8874 364.1174,-203.0955 367.7248,-199.641"/>
<polygon fill="#000000" stroke="#000000" points="370.149,-202.1739 375.4994,-193.0292 365.6142,-196.8414 370.149,-202.1739"/>
<text text-anchor="start" x="358.0075" y="-214" font-family="Helvetica,sans-Serif" font-size="10.00" fill="#000000">reject &#160;&#160;</text>
</g>
<!-- final -->
<g id="node9" class="node">
<title>final</title>
<ellipse fill="#000000" stroke="#000000" stroke-width="2" cx="318.0075" cy="-91" rx="5.5" ry="5.5"/>
<ellipse fill="none" stroke="#000000" stroke-width="2" cx="318.0075" cy="-91" rx="9.5" ry="9.5"/>
</g>
<!-- valid&#45;&gt;final -->
<g id="edge16" class="edge">
<title>valid&#45;&gt;final</title>
<path fill="none" stroke="#000000" d="M345.6309,-240.7012C339.7633,-208.9025 327.7333,-143.7075 321.6711,-110.8544"/>
<polygon fill="#000000" stroke="#000000" points="325.0522,-109.8892 319.7956,-100.6904 318.1684,-111.1595 325.0522,-109.8892"/>
<text text-anchor="middle" x="337.397" y="-172" font-family="Helvetica,sans-Serif" font-size="10.00" fill="#000000"> </text>
</g>
<!-- note_valid -->
<g id="node11" class="node">
<title>note_valid</title>
<polygon fill="#ffffcc" stroke="#000000" points="294.5225,-193 179.4925,-193 179.4925,-157 300.5225,-157 300.5225,-187 294.5225,-193"/>
<polyline fill="none" stroke="#000000" points="294.5225,-193 294.5225,-187 "/>
<polyline fill="none" stroke="#000000" points="300.5225,-187 294.5225,-187 "/>
<text text-anchor="start" x="187.5" y="-172" font-family="Helvetica,sans-Serif" font-size="10.00" fill="#000000">assumptions/comments</text>
</g>
<!-- valid&#45;&gt;note_valid -->
<g id="edge3" class="edge">
<title>valid&#45;&gt;note_valid</title>
<path fill="none" stroke="#000000" stroke-dasharray="5,2" d="M325.6243,-240.9799C307.3584,-226.9035 282.0797,-207.4226 263.7282,-193.2801"/>
</g>
<!-- not valid&#45;&gt;valid -->
<g id="edge25" class="edge">
<title>not valid&#45;&gt;valid</title>
<path fill="none" stroke="#000000" d="M403.4476,-193.3431C400.556,-202.7461 396.1787,-214.0662 390.0075,-223 387.393,-226.7849 384.295,-230.4293 380.9911,-233.8503"/>
<polygon fill="#000000" stroke="#000000" points="378.364,-231.519 373.537,-240.9504 383.192,-236.5876 378.364,-231.519"/>
<text text-anchor="start" x="396.0075" y="-214" font-family="Helvetica,sans-Serif" font-size="10.00" fill="#000000">validate &#160;&#160;</text>
</g>
<!-- not valid&#45;&gt;final -->
<g id="edge17" class="edge">
<title>not valid&#45;&gt;final</title>
<path fill="none" stroke="#000000" d="M387.1563,-156.9314C372.3337,-143.8992 352.1042,-125.7288 335.0075,-109 333.8938,-107.9103 332.7546,-106.7682 331.6195,-105.6105"/>
<polygon fill="#000000" stroke="#000000" points="333.9316,-102.9631 324.5017,-98.1332 328.8614,-107.7894 333.9316,-102.9631"/>
<text text-anchor="middle" x="367.397" y="-130" font-family="Helvetica,sans-Serif" font-size="10.00" fill="#000000"> </text>
</g>
<!-- note_not valid -->
<g id="node12" class="node">
<title>note_not valid</title>
<polygon fill="#ffffcc" stroke="#000000" points="436.5055,-109 341.5095,-109 341.5095,-73 442.5055,-73 442.5055,-103 436.5055,-109"/>
<polyline fill="none" stroke="#000000" points="436.5055,-109 436.5055,-103 "/>
<polyline fill="none" stroke="#000000" points="442.5055,-103 436.5055,-103 "/>
<text text-anchor="start" x="349.5085" y="-88" font-family="Helvetica,sans-Serif" font-size="10.00" fill="#000000">remarks/comments</text>
</g>
<!-- not valid&#45;&gt;note_not valid -->
<g id="edge4" class="edge">
<title>not valid&#45;&gt;note_not valid</title>
<path fill="none" stroke="#000000" stroke-dasharray="5,2" d="M404.5357,-156.7733C401.852,-142.6836 398.1545,-123.2718 395.4725,-109.1912"/>
</g>
<!-- ongoing -->
<g id="node5" class="node">
<title>ongoing</title>
<polygon fill="#ffffff" stroke="transparent" stroke-width="2" points="206.0075,-637 142.0075,-637 142.0075,-601 206.0075,-601 206.0075,-637"/>
<text text-anchor="start" x="152.6637" y="-615.2" font-family="Helvetica,sans-Serif" font-size="12.00" fill="#000000">ongoing</text>
<path fill="none" stroke="#000000" stroke-width="2" d="M154.3408,-602C154.3408,-602 193.6742,-602 193.6742,-602 199.3408,-602 205.0075,-607.6667 205.0075,-613.3333 205.0075,-613.3333 205.0075,-624.6667 205.0075,-624.6667 205.0075,-630.3333 199.3408,-636 193.6742,-636 193.6742,-636 154.3408,-636 154.3408,-636 148.6742,-636 143.0075,-630.3333 143.0075,-624.6667 143.0075,-624.6667 143.0075,-613.3333 143.0075,-613.3333 143.0075,-607.6667 148.6742,-602 154.3408,-602"/>
</g>
<!-- ongoing&#45;&gt;initial -->
<g id="edge10" class="edge">
<title>ongoing&#45;&gt;initial</title>
<path fill="none" stroke="#000000" d="M176.5687,-637.1542C179.9064,-660.8127 185.6861,-701.7809 188.8255,-724.0338"/>
<polygon fill="#000000" stroke="#000000" points="185.3701,-724.5963 190.2329,-734.0092 192.3015,-723.6183 185.3701,-724.5963"/>
<text text-anchor="start" x="185.0075" y="-688" font-family="Helvetica,sans-Serif" font-size="10.00" fill="#000000">delete &#160;&#160;</text>
</g>
<!-- ongoing&#45;&gt;submitted -->
<g id="edge11" class="edge">
<title>ongoing&#45;&gt;submitted</title>
<path fill="none" stroke="#000000" d="M172.8523,-600.6933C172.5451,-595.0243 172.2565,-588.756 172.1045,-583 171.6821,-567.0056 171.6821,-562.9944 172.1045,-547 172.1686,-544.5717 172.2571,-542.0522 172.361,-539.525"/>
<polygon fill="#000000" stroke="#000000" points="175.8679,-539.4633 172.8523,-529.3067 168.876,-539.127 175.8679,-539.4633"/>
<text text-anchor="start" x="173.0075" y="-562" font-family="Helvetica,sans-Serif" font-size="10.00" fill="#000000">submit/reinstate &#160;&#160;</text>
</g>
<!-- ongoing&#45;&gt;ongoing -->
<g id="edge12" class="edge">
<title>ongoing&#45;&gt;ongoing</title>
<path fill="none" stroke="#000000" d="M206.2502,-626.752C214.1377,-626.1777 220.0075,-623.5938 220.0075,-619 220.0075,-616.7031 218.5401,-614.9087 216.0867,-613.6167"/>
<polygon fill="#000000" stroke="#000000" points="216.7917,-610.1865 206.2502,-611.248 215.1529,-616.992 216.7917,-610.1865"/>
<text text-anchor="start" x="220.0075" y="-616" font-family="Helvetica,sans-Serif" font-size="10.00" fill="#000000">edit/upload &#160;&#160;</text>
</g>
<!-- recalled&#45;&gt;submitted -->
<g id="edge14" class="edge">
<title>recalled&#45;&gt;submitted</title>
<path fill="none" stroke="#000000" d="M172.222,-361.0219C172.568,-390.0797 173.2519,-447.5318 173.6656,-482.2814"/>
<polygon fill="#000000" stroke="#000000" points="170.1708,-482.7437 173.7897,-492.7012 177.1703,-482.6603 170.1708,-482.7437"/>
<text text-anchor="start" x="174.0075" y="-424" font-family="Helvetica,sans-Serif" font-size="10.00" fill="#000000">reinstate &#160;&#160;</text>
</g>
<!-- recalled&#45;&gt;final -->
<g id="edge15" class="edge">
<title>recalled&#45;&gt;final</title>
<path fill="none" stroke="#000000" d="M166.03,-324.8171C155.5533,-289.3116 138.0375,-209.6359 172.0075,-157 200.2077,-113.3042 265.0862,-98.2302 298.0303,-93.2776"/>
<polygon fill="#000000" stroke="#000000" points="298.7886,-96.7076 308.2388,-91.9176 297.8641,-89.7689 298.7886,-96.7076"/>
<text text-anchor="middle" x="155.397" y="-214" font-family="Helvetica,sans-Serif" font-size="10.00" fill="#000000"> </text>
</g>
<!-- processing&#45;&gt;recalled -->
<g id="edge19" class="edge">
<title>processing&#45;&gt;recalled</title>
<path fill="none" stroke="#000000" d="M252.9114,-408.9799C238.2131,-396.9929 218.7093,-381.0869 202.5344,-367.8957"/>
<polygon fill="#000000" stroke="#000000" points="204.3841,-364.8879 194.4224,-361.2801 199.96,-370.3126 204.3841,-364.8879"/>
<text text-anchor="start" x="230.0075" y="-382" font-family="Helvetica,sans-Serif" font-size="10.00" fill="#000000">recall &#160;&#160;</text>
</g>
<!-- processing&#45;&gt;^choice -->
<g id="edge21" class="edge">
<title>processing&#45;&gt;^choice</title>
<path fill="none" stroke="#000000" d="M289.7625,-408.7733C302.0546,-393.5889 319.3506,-372.2232 330.856,-358.0107"/>
<polygon fill="#000000" stroke="#000000" points="333.6033,-360.1796 337.1749,-350.2049 328.1626,-355.7752 333.6033,-360.1796"/>
<text text-anchor="middle" x="314.397" y="-382" font-family="Helvetica,sans-Serif" font-size="10.00" fill="#000000"> </text>
</g>
<!-- ^choice&#45;&gt;valid -->
<g id="edge22" class="edge">
<title>^choice&#45;&gt;valid</title>
<path fill="none" stroke="#000000" d="M343.8418,-331.3202C344.6502,-320.0023 345.9079,-302.3947 346.9799,-287.3871"/>
<polygon fill="#000000" stroke="#000000" points="350.4971,-287.2699 347.7185,-277.0459 343.5148,-286.7711 350.4971,-287.2699"/>
<text text-anchor="start" x="346.0075" y="-298" font-family="Helvetica,sans-Serif" font-size="10.00" fill="#000000">validate &#160;&#160;</text>
</g>
<!-- ^choice&#45;&gt;not valid -->
<g id="edge23" class="edge">
<title>^choice&#45;&gt;not valid</title>
<path fill="none" stroke="#000000" d="M351.0693,-338.4716C361.4623,-332.3439 379.6627,-320.6005 392.0075,-307 421.2078,-274.8294 430.4836,-264.8904 442.0075,-223 443.4221,-217.8577 443.9779,-215.956 442.0075,-211 440.6239,-207.52 438.7267,-204.1819 436.5307,-201.0382"/>
<polygon fill="#000000" stroke="#000000" points="439.1899,-198.7607 430.1675,-193.2067 433.7572,-203.1749 439.1899,-198.7607"/>
<text text-anchor="start" x="436.0075" y="-256" font-family="Helvetica,sans-Serif" font-size="10.00" fill="#000000">reject &#160;&#160;</text>
</g>
<!-- ^choice&#45;&gt;^choice -->
<g id="edge1" class="edge">
<title>^choice&#45;&gt;^choice</title>
<path fill="none" stroke="transparent" d="M350.0635,-348.5198C358.9392,-352.961 369.5075,-351.1211 369.5075,-343 369.5075,-337.9243 365.3793,-335.3022 360.1162,-335.1337"/>
<polygon fill="transparent" stroke="transparent" points="359.0061,-331.7986 350.0635,-337.4802 360.5973,-338.6154 359.0061,-331.7986"/>
</g>
<!-- note_^choice -->
<g id="node13" class="node">
<title>note_^choice</title>
<polygon fill="#ffffcc" stroke="#000000" points="300.9086,-277 237.1064,-277 237.1064,-241 306.9086,-241 306.9086,-271 300.9086,-277"/>
<polyline fill="none" stroke="#000000" points="300.9086,-277 300.9086,-271 "/>
<polyline fill="none" stroke="#000000" points="306.9086,-271 300.9086,-271 "/>
<text text-anchor="start" x="245.057" y="-256" font-family="Helvetica,sans-Serif" font-size="10.00" fill="#000000">OS decision</text>
</g>
<!-- ^choice&#45;&gt;note_^choice -->
<g id="edge5" class="edge">
<title>^choice&#45;&gt;note_^choice</title>
<path fill="none" stroke="#000000" stroke-dasharray="5,2" d="M337.1973,-336.1259C326.4005,-323.3523 302.9241,-295.5774 287.2919,-277.083"/>
</g>
<!-- note_final -->
<g id="node14" class="node">
<title>note_final</title>
<polygon fill="#ffffcc" stroke="#000000" points="339.0075,-36 291.0075,-36 291.0075,0 345.0075,0 345.0075,-30 339.0075,-36"/>
<polyline fill="none" stroke="#000000" points="339.0075,-36 339.0075,-30 "/>
<polyline fill="none" stroke="#000000" points="345.0075,-30 339.0075,-30 "/>
<text text-anchor="start" x="299.0075" y="-15" font-family="Helvetica,sans-Serif" font-size="10.00" fill="#000000">finished</text>
</g>
<!-- final&#45;&gt;note_final -->
<g id="edge6" class="edge">
<title>final&#45;&gt;note_final</title>
<path fill="none" stroke="#000000" stroke-dasharray="5,2" d="M318.0075,-81.4565C318.0075,-70.0169 318.0075,-50.5953 318.0075,-36.2444"/>
</g>
<!-- i_note_tr_initial_ongoing_1&#45;&gt;ongoing -->
<g id="edge8" class="edge">
<title>i_note_tr_initial_ongoing_1&#45;&gt;ongoing</title>
<path fill="none" stroke="#000000" d="M159.9489,-690.9431C158.7515,-689.7734 139.6804,-670.8122 145.2245,-655 146.3365,-651.8284 147.8584,-648.7285 149.6257,-645.7622"/>
<polygon fill="#000000" stroke="#000000" points="152.6581,-647.5322 155.4995,-637.3255 146.9133,-643.5325 152.6581,-647.5322"/>
<text text-anchor="start" x="146.0075" y="-658" font-family="Helvetica,sans-Serif" font-size="10.00" fill="#000000">start &#160;&#160;</text>
</g>
<!-- note_tr_initial_ongoing_1 -->
<g id="node16" class="node">
<title>note_tr_initial_ongoing_1</title>
<polygon fill="#ffffcc" stroke="#000000" points="476.3888,-583 257.6262,-583 257.6262,-547 482.3888,-547 482.3888,-577 476.3888,-583"/>
<polyline fill="none" stroke="#000000" points="476.3888,-583 476.3888,-577 "/>
<polyline fill="none" stroke="#000000" points="482.3888,-577 476.3888,-577 "/>
<text text-anchor="start" x="265.817" y="-568" font-family="Helvetica,sans-Serif" font-size="10.00" fill="#000000">start new submission</text>
<text text-anchor="start" x="265.817" y="-556" font-family="Helvetica,sans-Serif" font-size="10.00" fill="#000000">optional: copy data from a previous submission</text>
</g>
<!-- i_note_tr_initial_ongoing_1&#45;&gt;note_tr_initial_ongoing_1 -->
<g id="edge9" class="edge">
<title>i_note_tr_initial_ongoing_1&#45;&gt;note_tr_initial_ongoing_1</title>
<path fill="none" stroke="#000000" stroke-dasharray="5,2" d="M160.0626,-690.9845C162.3669,-690.3344 236.5082,-669.2794 288.0075,-637 312.5678,-621.6058 337.0607,-598.8946 352.794,-583.1112"/>
</g>
</g>
</svg>
