<?xml version="1.0" encoding="UTF-8" standalone="no"?>
<!DOCTYPE svg PUBLIC "-//W3C//DTD SVG 1.1//EN" "http://www.w3.org/Graphics/SVG/1.1/DTD/svg11.dtd">
<svg width="100%" height="100%" viewBox="0 0 73 46" version="1.1" xmlns="http://www.w3.org/2000/svg" xmlns:xlink="http://www.w3.org/1999/xlink" xml:space="preserve" xmlns:serif="http://www.serif.com/" style="fill-rule:evenodd;clip-rule:evenodd;stroke-linecap:round;stroke-linejoin:round;stroke-miterlimit:1.5;">
    <g transform="matrix(1,0,0,1,-771,-683.5)">
        <g>
            <path d="M772,728L772,713L773,710L774,708L774.815,706.417" style="fill:none;stroke:white;stroke-width:2px;"/>
            <path d="M795,728L795,711L796,708L798,705L799,704" style="fill:none;stroke:white;stroke-width:2px;"/>
            <path d="M820,728L820,711L819,708L818,706L817,705L815,704" style="fill:none;stroke:white;stroke-width:2px;"/>
            <path d="M843,728L843,714L842,711L840,709L838,708" style="fill:none;stroke:white;stroke-width:2px;"/>
            <g transform="matrix(1,0,0,1,-2,-1)">
                <circle cx="784" cy="702" r="9" style="fill:none;stroke:white;stroke-width:2px;"/>
            </g>
            <g transform="matrix(1,0,0,1,48,-1)">
                <circle cx="784" cy="702" r="9" style="fill:none;stroke:white;stroke-width:2px;"/>
            </g>
            <g transform="matrix(1.16667,0,0,1.16667,-107.667,-123.5)">
                <circle cx="784" cy="702" r="9" style="fill:none;stroke:white;stroke-width:2.57px;"/>
            </g>
        </g>
    </g>
</svg>
