<?xml version="1.0" encoding="UTF-8" standalone="no"?>
<!DOCTYPE svg PUBLIC "-//W3C//DTD SVG 1.1//EN"
 "http://www.w3.org/Graphics/SVG/1.1/DTD/svg11.dtd">
<!-- Generated by graphviz version 2.40.1 (20161225.0304)
 -->
<!-- Title: state transitions Pages: 1 -->
<svg width="462pt" height="669pt"
 viewBox="0.00 0.00 461.58 669.00" xmlns="http://www.w3.org/2000/svg" xmlns:xlink="http://www.w3.org/1999/xlink">
<g id="graph0" class="graph" transform="scale(1 1) rotate(0) translate(4 665)">
<title>state transitions</title>
<polygon fill="#ffffff" stroke="transparent" points="-4,4 -4,-665 457.5795,-665 457.5795,4 -4,4"/>
<!-- initial -->
<g id="node1" class="node">
<title>initial</title>
<ellipse fill="#000000" stroke="#000000" stroke-width="2" cx="258.0075" cy="-655.5" rx="5.5" ry="5.5"/>
</g>
<!-- Data Entry -->
<g id="node4" class="node">
<title>Data Entry</title>
<polygon fill="#ffffff" stroke="transparent" stroke-width="2" points="344.0075,-602 266.0075,-602 266.0075,-566 344.0075,-566 344.0075,-602"/>
<text text-anchor="start" x="276.6689" y="-580.2" font-family="Helvetica,sans-Serif" font-size="12.00" fill="#000000">Data Entry</text>
<path fill="none" stroke="#000000" stroke-width="2" d="M278.3408,-567C278.3408,-567 331.6742,-567 331.6742,-567 337.3408,-567 343.0075,-572.6667 343.0075,-578.3333 343.0075,-578.3333 343.0075,-589.6667 343.0075,-589.6667 343.0075,-595.3333 337.3408,-601 331.6742,-601 331.6742,-601 278.3408,-601 278.3408,-601 272.6742,-601 267.0075,-595.3333 267.0075,-589.6667 267.0075,-589.6667 267.0075,-578.3333 267.0075,-578.3333 267.0075,-572.6667 272.6742,-567 278.3408,-567"/>
</g>
<!-- initial&#45;&gt;Data Entry -->
<g id="edge7" class="edge">
<title>initial&#45;&gt;Data Entry</title>
<path fill="none" stroke="#000000" d="M257.0227,-649.843C256.0337,-642.5119 255.2815,-629.5404 260.2245,-620 262.1863,-616.2135 264.7418,-612.6878 267.6379,-609.4412"/>
<polygon fill="#000000" stroke="#000000" points="270.1675,-611.8633 274.8946,-602.3815 265.2863,-606.8459 270.1675,-611.8633"/>
<text text-anchor="start" x="260.0075" y="-623" font-family="Helvetica,sans-Serif" font-size="10.00" fill="#000000">start &#160;&#160;</text>
</g>
<!-- note_initial -->
<g id="node9" class="node">
<title>note_initial</title>
<polygon fill="#ffffcc" stroke="#000000" points="246.3888,-602 27.6262,-602 27.6262,-566 252.3888,-566 252.3888,-596 246.3888,-602"/>
<polyline fill="none" stroke="#000000" points="246.3888,-602 246.3888,-596 "/>
<polyline fill="none" stroke="#000000" points="252.3888,-596 246.3888,-596 "/>
<text text-anchor="start" x="35.817" y="-587" font-family="Helvetica,sans-Serif" font-size="10.00" fill="#000000">start new submission</text>
<text text-anchor="start" x="35.817" y="-575" font-family="Helvetica,sans-Serif" font-size="10.00" fill="#000000">optional: copy data from a previous submission</text>
</g>
<!-- initial&#45;&gt;note_initial -->
<g id="edge2" class="edge">
<title>initial&#45;&gt;note_initial</title>
<path fill="none" stroke="#000000" stroke-dasharray="5,2" d="M253.2356,-652.6086C239.395,-644.2221 198.4027,-619.3835 169.7446,-602.0187"/>
</g>
<!-- Submitted -->
<g id="node2" class="node">
<title>Submitted</title>
<polygon fill="#ffffff" stroke="transparent" stroke-width="2" points="248.0075,-518 172.0075,-518 172.0075,-482 248.0075,-482 248.0075,-518"/>
<text text-anchor="start" x="183.0009" y="-496.2" font-family="Helvetica,sans-Serif" font-size="12.00" fill="#000000">Submitted</text>
<path fill="none" stroke="#000000" stroke-width="2" d="M184.3408,-483C184.3408,-483 235.6742,-483 235.6742,-483 241.3408,-483 247.0075,-488.6667 247.0075,-494.3333 247.0075,-494.3333 247.0075,-505.6667 247.0075,-505.6667 247.0075,-511.3333 241.3408,-517 235.6742,-517 235.6742,-517 184.3408,-517 184.3408,-517 178.6742,-517 173.0075,-511.3333 173.0075,-505.6667 173.0075,-505.6667 173.0075,-494.3333 173.0075,-494.3333 173.0075,-488.6667 178.6742,-483 184.3408,-483"/>
</g>
<!-- Processing -->
<g id="node5" class="node">
<title>Processing</title>
<polygon fill="#ffffff" stroke="transparent" stroke-width="2" points="181.5075,-434 100.5075,-434 100.5075,-398 181.5075,-398 181.5075,-434"/>
<text text-anchor="start" x="111.8357" y="-412.2" font-family="Helvetica,sans-Serif" font-size="12.00" fill="#000000">Processing</text>
<path fill="none" stroke="#000000" stroke-width="2" d="M112.8408,-399C112.8408,-399 169.1742,-399 169.1742,-399 174.8408,-399 180.5075,-404.6667 180.5075,-410.3333 180.5075,-410.3333 180.5075,-421.6667 180.5075,-421.6667 180.5075,-427.3333 174.8408,-433 169.1742,-433 169.1742,-433 112.8408,-433 112.8408,-433 107.1742,-433 101.5075,-427.3333 101.5075,-421.6667 101.5075,-421.6667 101.5075,-410.3333 101.5075,-410.3333 101.5075,-404.6667 107.1742,-399 112.8408,-399"/>
</g>
<!-- Submitted&#45;&gt;Processing -->
<g id="edge11" class="edge">
<title>Submitted&#45;&gt;Processing</title>
<path fill="none" stroke="#000000" d="M195.0355,-481.7733C185.5416,-470.2154 173.1057,-455.0761 162.5586,-442.2361"/>
<polygon fill="#000000" stroke="#000000" points="165.0022,-439.6969 155.9503,-434.1912 159.5931,-444.1401 165.0022,-439.6969"/>
<text text-anchor="middle" x="181.397" y="-455" font-family="Helvetica,sans-Serif" font-size="10.00" fill="#000000"> </text>
</g>
<!-- Recalled -->
<g id="node6" class="node">
<title>Recalled</title>
<polygon fill="#ffffff" stroke="transparent" stroke-width="2" points="209.0075,-350 141.0075,-350 141.0075,-314 209.0075,-314 209.0075,-350"/>
<text text-anchor="start" x="151.6717" y="-328.2" font-family="Helvetica,sans-Serif" font-size="12.00" fill="#000000">Recalled</text>
<path fill="none" stroke="#000000" stroke-width="2" d="M153.3408,-315C153.3408,-315 196.6742,-315 196.6742,-315 202.3408,-315 208.0075,-320.6667 208.0075,-326.3333 208.0075,-326.3333 208.0075,-337.6667 208.0075,-337.6667 208.0075,-343.3333 202.3408,-349 196.6742,-349 196.6742,-349 153.3408,-349 153.3408,-349 147.6742,-349 142.0075,-343.3333 142.0075,-337.6667 142.0075,-337.6667 142.0075,-326.3333 142.0075,-326.3333 142.0075,-320.6667 147.6742,-315 153.3408,-315"/>
</g>
<!-- Submitted&#45;&gt;Recalled -->
<g id="edge12" class="edge">
<title>Submitted&#45;&gt;Recalled</title>
<path fill="none" stroke="#000000" d="M210.4583,-481.9964C210.5844,-456.1153 208.861,-407.1972 196.0075,-368 195.0465,-365.0694 193.8233,-362.1166 192.4519,-359.2303"/>
<polygon fill="#000000" stroke="#000000" points="195.5048,-357.517 187.7058,-350.3458 189.3305,-360.8153 195.5048,-357.517"/>
<text text-anchor="start" x="209.0075" y="-413" font-family="Helvetica,sans-Serif" font-size="10.00" fill="#000000">recall &#160;&#160;</text>
</g>
<!-- note_Submitted -->
<g id="node10" class="node">
<title>note_Submitted</title>
<polygon fill="#ffffcc" stroke="#000000" points="80.0225,-434 -.0075,-434 -.0075,-398 86.0225,-398 86.0225,-428 80.0225,-434"/>
<polyline fill="none" stroke="#000000" points="80.0225,-434 80.0225,-428 "/>
<polyline fill="none" stroke="#000000" points="86.0225,-428 80.0225,-428 "/>
<text text-anchor="start" x="8" y="-419" font-family="Helvetica,sans-Serif" font-size="10.00" fill="#000000">flag: provisional</text>
<text text-anchor="start" x="8" y="-407" font-family="Helvetica,sans-Serif" font-size="10.00" fill="#000000">flag: incomplete</text>
</g>
<!-- Submitted&#45;&gt;note_Submitted -->
<g id="edge3" class="edge">
<title>Submitted&#45;&gt;note_Submitted</title>
<path fill="none" stroke="#000000" stroke-dasharray="5,2" d="M174.1818,-481.9799C146.1007,-467.8553 107.2013,-448.2891 79.0617,-434.135"/>
</g>
<!-- Finalized -->
<g id="node3" class="node">
<title>Finalized</title>
<polygon fill="#ffffff" stroke="transparent" stroke-width="2" points="287.0075,-193 217.0075,-193 217.0075,-157 287.0075,-157 287.0075,-193"/>
<text text-anchor="start" x="228.0063" y="-171.2" font-family="Helvetica,sans-Serif" font-size="12.00" fill="#000000">Finalized</text>
<path fill="none" stroke="#000000" stroke-width="2" d="M229.3408,-158C229.3408,-158 274.6742,-158 274.6742,-158 280.3408,-158 286.0075,-163.6667 286.0075,-169.3333 286.0075,-169.3333 286.0075,-180.6667 286.0075,-180.6667 286.0075,-186.3333 280.3408,-192 274.6742,-192 274.6742,-192 229.3408,-192 229.3408,-192 223.6742,-192 218.0075,-186.3333 218.0075,-180.6667 218.0075,-180.6667 218.0075,-169.3333 218.0075,-169.3333 218.0075,-163.6667 223.6742,-158 229.3408,-158"/>
</g>
<!-- final -->
<g id="node8" class="node">
<title>final</title>
<ellipse fill="#000000" stroke="#000000" stroke-width="2" cx="185.0075" cy="-91" rx="5.5" ry="5.5"/>
<ellipse fill="none" stroke="#000000" stroke-width="2" cx="185.0075" cy="-91" rx="9.5" ry="9.5"/>
</g>
<!-- Finalized&#45;&gt;final -->
<g id="edge20" class="edge">
<title>Finalized&#45;&gt;final</title>
<path fill="none" stroke="#000000" d="M237.4695,-156.7733C225.4857,-141.7488 208.6747,-120.6723 197.3402,-106.4618"/>
<polygon fill="#000000" stroke="#000000" points="200.0545,-104.2519 191.0826,-98.6165 194.582,-108.6168 200.0545,-104.2519"/>
<text text-anchor="middle" x="223.397" y="-130" font-family="Helvetica,sans-Serif" font-size="10.00" fill="#000000"> </text>
</g>
<!-- note_Finalized -->
<g id="node11" class="node">
<title>note_Finalized</title>
<polygon fill="#ffffcc" stroke="#000000" points="297.2289,-109 208.7861,-109 208.7861,-73 303.2289,-73 303.2289,-103 297.2289,-109"/>
<polyline fill="none" stroke="#000000" points="297.2289,-109 297.2289,-103 "/>
<polyline fill="none" stroke="#000000" points="303.2289,-103 297.2289,-103 "/>
<text text-anchor="start" x="216.647" y="-88" font-family="Helvetica,sans-Serif" font-size="10.00" fill="#000000">flag: valid | invalid</text>
</g>
<!-- Finalized&#45;&gt;note_Finalized -->
<g id="edge4" class="edge">
<title>Finalized&#45;&gt;note_Finalized</title>
<path fill="none" stroke="#000000" stroke-dasharray="5,2" d="M252.8754,-156.7733C253.5464,-142.6836 254.4707,-123.2718 255.1413,-109.1912"/>
</g>
<!-- Data Entry&#45;&gt;initial -->
<g id="edge8" class="edge">
<title>Data Entry&#45;&gt;initial</title>
<path fill="none" stroke="#000000" d="M300.5918,-602.4448C297.7396,-611.8756 293.3541,-623.19 287.0075,-632 282.841,-637.7838 276.9007,-642.936 271.4803,-646.9315"/>
<polygon fill="#000000" stroke="#000000" points="269.1398,-644.2866 262.7805,-652.7607 273.0363,-650.1019 269.1398,-644.2866"/>
<text text-anchor="start" x="293.0075" y="-623" font-family="Helvetica,sans-Serif" font-size="10.00" fill="#000000">delete &#160;&#160;</text>
</g>
<!-- Data Entry&#45;&gt;Submitted -->
<g id="edge9" class="edge">
<title>Data Entry&#45;&gt;Submitted</title>
<path fill="none" stroke="#000000" d="M284.3939,-565.7733C270.949,-553.8851 253.219,-538.2081 238.4411,-525.1413"/>
<polygon fill="#000000" stroke="#000000" points="240.3908,-522.1932 230.5809,-518.1912 235.7539,-527.4373 240.3908,-522.1932"/>
<text text-anchor="start" x="263.0075" y="-539" font-family="Helvetica,sans-Serif" font-size="10.00" fill="#000000">submit &#160;&#160;</text>
</g>
<!-- Data Entry&#45;&gt;Finalized -->
<g id="edge10" class="edge">
<title>Data Entry&#45;&gt;Finalized</title>
<path fill="none" stroke="#000000" d="M322.6084,-565.9985C336.3075,-550.0301 353.0075,-525.3625 353.0075,-500 353.0075,-500 353.0075,-500 353.0075,-253.5 353.0075,-222.8072 323.5708,-202.3752 296.481,-190.0707"/>
<polygon fill="#000000" stroke="#000000" points="297.6208,-186.7519 287.0489,-186.0539 294.878,-193.1923 297.6208,-186.7519"/>
<text text-anchor="start" x="353.0075" y="-371" font-family="Helvetica,sans-Serif" font-size="10.00" fill="#000000">fast&#45;track processing &#160;&#160;</text>
</g>
<!-- Processing&#45;&gt;Finalized -->
<g id="edge17" class="edge">
<title>Processing&#45;&gt;Finalized</title>
<path fill="none" stroke="#000000" d="M173.4841,-397.8466C181.3315,-392.6507 189.3625,-386.5891 196.0075,-380 207.3864,-368.7168 209.8345,-364.788 216.0075,-350 236.5817,-300.7125 245.7656,-238.5571 249.5738,-203.1417"/>
<polygon fill="#000000" stroke="#000000" points="253.0701,-203.3534 250.5898,-193.053 246.1054,-202.6519 253.0701,-203.3534"/>
<text text-anchor="start" x="236.0075" y="-287" font-family="Helvetica,sans-Serif" font-size="10.00" fill="#000000">process &#160;&#160;</text>
</g>
<!-- Processing&#45;&gt;Recalled -->
<g id="edge16" class="edge">
<title>Processing&#45;&gt;Recalled</title>
<path fill="none" stroke="#000000" d="M148.385,-397.7733C152.885,-386.6557 158.7262,-372.2244 163.7902,-359.7132"/>
<polygon fill="#000000" stroke="#000000" points="167.1367,-360.7738 167.6444,-350.1912 160.6481,-358.1475 167.1367,-360.7738"/>
<text text-anchor="start" x="161.0075" y="-371" font-family="Helvetica,sans-Serif" font-size="10.00" fill="#000000">recall &#160;&#160;</text>
</g>
<!-- ^choice -->
<g id="node7" class="node">
<title>^choice</title>
<polygon fill="#ffffff" stroke="#000000" stroke-width="2" points="122.0075,-266 109.5075,-253.5 122.0075,-241 134.5075,-253.5 122.0075,-266"/>
<text text-anchor="middle" x="122.0075" y="-250.5" font-family="Helvetica,sans-Serif" font-size="10.00" fill="#000000"> </text>
</g>
<!-- Recalled&#45;&gt;^choice -->
<g id="edge18" class="edge">
<title>Recalled&#45;&gt;^choice</title>
<path fill="none" stroke="#000000" d="M146.0667,-313.6382C140.0588,-308.5932 134.3429,-302.6525 130.3285,-296 126.7086,-290.0012 124.6214,-282.7382 123.4309,-275.9263"/>
<polygon fill="#000000" stroke="#000000" points="126.8861,-275.3449 122.2066,-265.8395 119.9371,-276.1884 126.8861,-275.3449"/>
<text text-anchor="start" x="131.0075" y="-287" font-family="Helvetica,sans-Serif" font-size="10.00" fill="#000000">reinstate &#160;&#160;</text>
</g>
<!-- Recalled&#45;&gt;final -->
<g id="edge19" class="edge">
<title>Recalled&#45;&gt;final</title>
<path fill="none" stroke="#000000" d="M175.7591,-313.8858C177.5932,-269.6849 182.2864,-156.578 184.1885,-110.739"/>
<polygon fill="#000000" stroke="#000000" points="187.6908,-110.7537 184.6084,-100.6172 180.6968,-110.4635 187.6908,-110.7537"/>
<text text-anchor="middle" x="181.397" y="-214" font-family="Helvetica,sans-Serif" font-size="10.00" fill="#000000"> </text>
</g>
<!-- ^choice&#45;&gt;Submitted -->
<g id="edge13" class="edge">
<title>^choice&#45;&gt;Submitted</title>
<path fill="none" stroke="#000000" d="M134.2429,-254.0178C167.3041,-255.6984 257.1421,-262.2217 275.0075,-284 321.5577,-340.7457 265.1086,-430.1766 231.524,-474.0191"/>
<polygon fill="#000000" stroke="#000000" points="228.7574,-471.8752 225.3491,-481.9068 234.2694,-476.1901 228.7574,-471.8752"/>
<text text-anchor="start" x="287.0075" y="-371" font-family="Helvetica,sans-Serif" font-size="10.00" fill="#000000">reinstate &#160;&#160;</text>
</g>
<!-- ^choice&#45;&gt;Finalized -->
<g id="edge15" class="edge">
<title>^choice&#45;&gt;Finalized</title>
<path fill="none" stroke="#000000" d="M119.4947,-243.2303C117.837,-233.8113 117.1226,-219.9977 124.3285,-211 134.7535,-197.9827 174.2464,-188.1722 206.5817,-182.1063"/>
<polygon fill="#000000" stroke="#000000" points="207.5615,-185.4862 216.7828,-180.2691 206.3207,-178.597 207.5615,-185.4862"/>
<text text-anchor="start" x="125.0075" y="-214" font-family="Helvetica,sans-Serif" font-size="10.00" fill="#000000">reinstate &#160;&#160;</text>
</g>
<!-- ^choice&#45;&gt;Processing -->
<g id="edge14" class="edge">
<title>^choice&#45;&gt;Processing</title>
<path fill="none" stroke="#000000" d="M116.0439,-260.5165C103.2795,-276.423 75.4076,-316.45 87.3285,-350 92.6722,-365.0393 103.0693,-379.142 113.3014,-390.4191"/>
<polygon fill="#000000" stroke="#000000" points="110.8602,-392.9307 120.2947,-397.7516 115.9258,-388.0995 110.8602,-392.9307"/>
<text text-anchor="start" x="88.0075" y="-329" font-family="Helvetica,sans-Serif" font-size="10.00" fill="#000000">reinstate &#160;&#160;</text>
</g>
<!-- ^choice&#45;&gt;^choice -->
<g id="edge1" class="edge">
<title>^choice&#45;&gt;^choice</title>
<path fill="none" stroke="transparent" d="M129.6034,-258.4554C138.3619,-261.9721 148.5075,-260.3203 148.5075,-253.5 148.5075,-249.3439 144.7401,-247.107 139.8148,-246.7894"/>
<polygon fill="transparent" stroke="transparent" points="138.8659,-243.4011 129.6034,-248.5446 140.0518,-250.2999 138.8659,-243.4011"/>
</g>
<!-- note_^choice -->
<g id="node12" class="node">
<title>note_^choice</title>
<polygon fill="#ffffcc" stroke="#000000" points="140.7608,-193 43.2542,-193 43.2542,-157 146.7608,-157 146.7608,-187 140.7608,-193"/>
<polyline fill="none" stroke="#000000" points="140.7608,-193 140.7608,-187 "/>
<polyline fill="none" stroke="#000000" points="146.7608,-187 140.7608,-187 "/>
<text text-anchor="start" x="51.381" y="-172" font-family="Helvetica,sans-Serif" font-size="10.00" fill="#000000">go to previous state</text>
</g>
<!-- ^choice&#45;&gt;note_^choice -->
<g id="edge5" class="edge">
<title>^choice&#45;&gt;note_^choice</title>
<path fill="none" stroke="#000000" stroke-dasharray="5,2" d="M117.4472,-245.4229C114.1888,-239.3919 109.8888,-230.8683 107.0075,-223 103.4631,-213.3208 100.6048,-202.169 98.5683,-193.0519"/>
</g>
<!-- note_final -->
<g id="node13" class="node">
<title>note_final</title>
<polygon fill="#ffffcc" stroke="#000000" points="206.0075,-36 158.0075,-36 158.0075,0 212.0075,0 212.0075,-30 206.0075,-36"/>
<polyline fill="none" stroke="#000000" points="206.0075,-36 206.0075,-30 "/>
<polyline fill="none" stroke="#000000" points="212.0075,-30 206.0075,-30 "/>
<text text-anchor="start" x="166.0075" y="-15" font-family="Helvetica,sans-Serif" font-size="10.00" fill="#000000">finished</text>
</g>
<!-- final&#45;&gt;note_final -->
<g id="edge6" class="edge">
<title>final&#45;&gt;note_final</title>
<path fill="none" stroke="#000000" stroke-dasharray="5,2" d="M185.0075,-81.4565C185.0075,-70.0169 185.0075,-50.5953 185.0075,-36.2444"/>
</g>
</g>
</svg>
